<svg xmlns="http://www.w3.org/2000/svg" width="440.941" height="191.827" viewBox="0 0 440.941 191.827">
  <g id="Layer_2" data-name="Layer 2" transform="translate(-2.06 -8.704)">
    <path id="Path_69" data-name="Path 69" d="M316.289,12.594a12.168,12.168,0,0,0-4.661,9.337,12.168,12.168,0,0,0,4.661,9.337l72.49,60.494H17.819c-8.7,0-15.759,5.888-15.759,13.151s7.055,13.151,15.759,13.151H388.464l-72.175,60.1c-6.11,5.129-6.11,13.413,0,18.543a18.05,18.05,0,0,0,22.22,0l100.226-83.64a10.305,10.305,0,0,0,0-16.7L338.667,12.594a18.036,18.036,0,0,0-22.377,0Z" transform="translate(0 0)" fill="#db7350"/>
  </g>
</svg>
