<svg xmlns="http://www.w3.org/2000/svg" width="570" height="511.675" viewBox="0 0 570 511.675">
  <g id="Group_109" data-name="Group 109" transform="translate(-2026 102)">
    <g id="Group_108" data-name="Group 108" transform="translate(830 -138)">
      <text id="Tap" transform="translate(1600 432)" fill="#646261" font-size="24" font-family="Montserrat-Light, Montserrat" font-weight="300" letter-spacing="0.24em"><tspan x="0" y="0">TAP</tspan></text>
      <text id="Grind" transform="translate(1598 458)" fill="#646261" font-size="24" font-family="Montserrat-Light, Montserrat" font-weight="300" letter-spacing="0.05em"><tspan x="0" y="0">GRIND</tspan></text>
      <text id="_" data-name="&amp;" transform="translate(1667 433)" fill="#646261" font-size="25" font-family="Montserrat-Light, Montserrat" font-weight="300"><tspan x="0" y="0">&amp;</tspan></text>
      <text id="Cafe" transform="translate(1616 485)" fill="#646261" font-size="17" font-family="Montserrat-SemiBold, Montserrat" font-weight="600" letter-spacing="0.1em"><tspan x="0" y="0">CAFE</tspan></text>
      <line id="Line_1" data-name="Line 1" x2="11.013" transform="translate(1636.426 466.031)" fill="none" stroke="#646261" stroke-width="2"/>
      <g id="Ellipse_1" data-name="Ellipse 1" transform="translate(1577 387)" fill="none" stroke="#646261" stroke-width="3">
        <ellipse cx="64" cy="63.5" rx="64" ry="63.5" stroke="none"/>
        <ellipse cx="64" cy="63.5" rx="62.5" ry="62" fill="none"/>
      </g>
    </g>
    <g id="undraw_Mail_sent_re_0ofv" transform="translate(2026 -102)">
      <path id="Path_71" data-name="Path 71" d="M880,389.837a1,1,0,0,1-.571-.179L602.87,197.055a5.015,5.015,0,0,0-5.729.01L322.574,389.656a1,1,0,1,1-1.149-1.638L595.992,195.426a7.022,7.022,0,0,1,8.02-.013l276.559,192.6a1,1,0,0,1-.572,1.821Z" transform="translate(-315 -194.163)" fill="#3f3d56"/>
      <path id="Path_72" data-name="Path 72" d="M23.264,202.5,285.276,8.319l264,208-250.5,148.5-136-31Z" fill="#e6e6e6"/>
      <path id="Path_73" data-name="Path 73" d="M489.256,650.7H359.815a6.047,6.047,0,1,1,0-12.095H489.256a6.047,6.047,0,0,1,0,12.095Z" transform="translate(-315 -194.163)" fill="#e6bf83"/>
      <path id="Path_74" data-name="Path 74" d="M406.256,624.7H359.815a6.047,6.047,0,0,1,0-12.095h46.44a6.047,6.047,0,1,1,0,12.095Z" transform="translate(-315 -194.163)" fill="#e6bf83"/>
      <path id="Path_75" data-name="Path 75" d="M603.96,504.822a7.563,7.563,0,0,1-2.869-.562L439.5,437.211V227.337a7.008,7.008,0,0,1,7-7h310a7.008,7.008,0,0,1,7,7v210.02l-.3.13-156.28,66.74A7.617,7.617,0,0,1,603.96,504.822Z" transform="translate(-315 -194.163)" fill="#fff"/>
      <path id="Path_76" data-name="Path 76" d="M603.96,505.322a8.072,8.072,0,0,1-3.06-.6L439,437.545V227.337a7.508,7.508,0,0,1,7.5-7.5h310a7.508,7.508,0,0,1,7.5,7.5V437.688l-156.888,67a8.109,8.109,0,0,1-3.152.635ZM441,436.21l160.663,66.665a6.118,6.118,0,0,0,4.668-.028L762,436.368V227.337a5.507,5.507,0,0,0-5.5-5.5h-310a5.507,5.507,0,0,0-5.5,5.5Z" transform="translate(-315 -194.163)" fill="#3f3d56"/>
      <path id="Path_77" data-name="Path 77" d="M878,387.837h-.2L763,436.857l-157.07,67.07a5.066,5.066,0,0,1-3.88.02L440,436.717l-117.62-48.8-.18-.08H322a7.008,7.008,0,0,0-7,7v304a7.008,7.008,0,0,0,7,7H878a7.008,7.008,0,0,0,7-7v-304A7.008,7.008,0,0,0,878,387.837Zm5,311a5,5,0,0,1-5,5H322a5,5,0,0,1-5-5v-304a5.011,5.011,0,0,1,4.81-5L440,438.877,601.28,505.8a7.121,7.121,0,0,0,5.44-.03L763,439.027l115.2-49.19a5.016,5.016,0,0,1,4.8,5Z" transform="translate(-315 -194.163)" fill="#3f3d56"/>
      <path id="Path_78" data-name="Path 78" d="M602.345,445.31a27.5,27.5,0,0,1-16.546-5.5l-.3-.222-62.311-47.707a27.683,27.683,0,1,1,33.674-43.949l40.36,30.948L692.6,254.5a27.682,27.682,0,0,1,38.813-5.124l-.593.805.608-.793a27.715,27.715,0,0,1,5.124,38.814L624.369,434.506a27.694,27.694,0,0,1-22.024,10.8Z" transform="translate(-315 -194.163)" fill="#e6bf83"/>
    </g>
  </g>
</svg>
